<?xml version="1.0" encoding="UTF-8"?>
<svg width="180px" height="180px" viewBox="0 0 180 180" version="1.1" xmlns="http://www.w3.org/2000/svg" xmlns:xlink="http://www.w3.org/1999/xlink">
    <!-- Generator: Sketch 49.3 (51167) - http://www.bohemiancoding.com/sketch -->
    <title>apple-icon-180x180</title>
    <desc>Created with Sketch.</desc>
    <defs>
        <linearGradient x1="50%" y1="0%" x2="50%" y2="100%" id="linearGradient-1">
            <stop stop-color="#9CBF5D" offset="0%"></stop>
            <stop stop-color="#429321" offset="100%"></stop>
        </linearGradient>
        <path d="M115.479096,0.269413765 C106.523403,8.36199189 96.1824825,15.29207 84.4563327,21.0596481 C73.5886109,26.4050033 58.7519539,29.3759766 42.1040039,40.0582031 C26.230252,50.2436623 15.388663,59.038945 5.96239345,82.7547653 C-0.35661111,98.6529291 -1.65290722,118.812695 2.07350512,143.234062 C5.31747361,136.028493 11.128203,129.553142 19.5056933,123.808008 C30.9216775,116.031563 33.8304624,115.164836 43.5926739,110.935429 C65.0519402,101.638359 72.6785298,101.596774 91.322618,86.4046875 C111.346594,70.0882034 115.479096,56.1222656 116.400226,30.590625 C117.026009,13.2453268 117.323821,13.9389847 116.400226,0.269413765 C116.375955,-0.0898045884 116.068911,-0.0898045884 115.479096,0.269413765 Z" id="path-2"></path>
        <linearGradient x1="50%" y1="0%" x2="50%" y2="85.84944%" id="linearGradient-4">
            <stop stop-color="#9BCE76" offset="0%"></stop>
            <stop stop-color="#81B354" offset="100%"></stop>
        </linearGradient>
        <linearGradient x1="50%" y1="0%" x2="50%" y2="90.2659863%" id="linearGradient-5">
            <stop stop-color="#9CBF5D" offset="0%"></stop>
            <stop stop-color="#429321" offset="100%"></stop>
        </linearGradient>
        <path d="M86.8660847,0.199378965 C80.1294029,6.18827063 72.3507196,11.3168572 63.5300347,15.5851385 C55.3550794,19.5409549 44.1945979,21.739616 31.6716194,29.6449704 C19.7310108,37.1826933 11.5757133,43.6916197 4.48505222,61.2424516 C-0.268251242,73.0078469 -1.24335558,87.9270297 1.5597392,106 C3.99992839,100.667537 8.37089533,95.8754701 14.67264,91.6237983 C23.2600112,85.8688602 25.4480674,85.2274414 32.7914319,82.0974797 C48.9335954,75.2172067 54.670495,75.1864314 68.6950155,63.9435672 C83.7575201,51.868595 86.8660847,41.5331386 87.5589803,22.6385135 C88.0297092,9.80217006 88.25373,10.3155098 87.5589803,0.199378965 C87.5407232,-0.0664596551 87.309758,-0.0664596551 86.8660847,0.199378965 Z" id="path-6"></path>
        <filter x="-8.0%" y="-4.7%" width="115.9%" height="113.2%" filterUnits="objectBoundingBox" id="filter-8">
            <feOffset dx="0" dy="2" in="SourceAlpha" result="shadowOffsetOuter1"></feOffset>
            <feGaussianBlur stdDeviation="2" in="shadowOffsetOuter1" result="shadowBlurOuter1"></feGaussianBlur>
            <feColorMatrix values="0 0 0 0 0   0 0 0 0 0   0 0 0 0 0  0 0 0 0.5 0" type="matrix" in="shadowBlurOuter1"></feColorMatrix>
        </filter>
    </defs>
    <g id="apple-icon-180x180" stroke="none" stroke-width="1" fill="none" fill-rule="evenodd">
        <g id="Group" transform="translate(21.000000, 10.000000)">
            <g id="Combined-Shape">
                <mask id="mask-3" fill="white">
                    <use xlink:href="#path-2"></use>
                </mask>
                <use id="Mask" fill="url(#linearGradient-1)" xlink:href="#path-2"></use>
                <path d="M76.9476432,57.1891886 C71.8876258,62.0856609 66.7302163,66.3046293 61.4754148,69.8460937 C54.424095,74.5983187 48.2399811,79.4443115 42.7940724,84.2994919 C46.3791211,85.8426795 52.1213741,86.6832161 60.0208315,86.8211016 C67.191583,86.9462675 76.4426884,85.5131818 87.7741478,82.5218443 C75.4636058,87.5978133 65.1854461,90.0638326 56.9396688,89.919902 C49.1273111,89.7835368 42.9342116,89.2792249 38.3603703,88.4069665 C16.6942647,109.272552 7.99870513,129.86716 2.02465877,143.470933 C1.62072442,144.39075 1.62072442,141.99737 2.02465877,136.290791 C5.65500724,123.664123 12.4480255,111.341236 22.4037134,99.3221295 C21.1713508,96.3610929 20.2245705,92.1880618 19.5633725,86.803036 C18.8944241,81.3548881 19.8856277,75.5545276 22.5369835,69.4019546 C21.8949117,74.6757636 21.8647436,79.6815966 22.4464793,84.4194537 C23.1210903,89.9137199 24.1825783,93.627657 25.6309431,95.561265 C32.7063352,87.593961 41.1862738,79.7615664 51.0707589,72.0640812 C50.2376649,68.9884774 49.8211179,64.7843045 49.8211179,59.4515625 C49.8211179,53.9625 51.5118194,48.3261719 54.8932225,42.5425781 C53.6132208,47.6988281 52.97322,52.6636719 52.97322,57.4371094 C52.97322,63.1496094 53.6132208,67.0304687 54.8932225,69.0796875 L54.3229915,69.5744317 C56.1619347,68.1902777 58.0466396,66.8105192 59.9771062,65.4351562 C77.8698146,52.687477 95.6712603,33.2757582 113.381443,7.2 C102.683149,26.6700664 91.4508124,42.4250904 79.6844341,54.4650721 C82.670017,55.130499 86.4428649,55.5030109 91.0029779,55.582608 C95.2707112,55.6571016 100.249552,54.898528 105.939501,53.3068874 C98.6087116,56.5608461 92.4895449,58.1449947 87.5820008,58.0593332 C83.1686794,57.9822984 79.6238936,57.6922502 76.9476432,57.1891886 Z" stroke="#6EA53B" fill="url(#linearGradient-4)" mask="url(#mask-3)"></path>
            </g>
            <g id="Combined-Shape-Copy" transform="translate(70.000000, 123.000000) rotate(47.000000) translate(-70.000000, -123.000000) translate(26.000000, 70.000000)">
                <mask id="mask-7" fill="white">
                    <use xlink:href="#path-6"></use>
                </mask>
                <g id="Mask">
                    <use fill="black" fill-opacity="1" filter="url(#filter-8)" xlink:href="#path-6"></use>
                    <use fill="url(#linearGradient-5)" fill-rule="evenodd" xlink:href="#path-6"></use>
                </g>
                <path d="M58.048924,41.8730838 C54.2237947,45.5079834 50.32497,48.6395965 46.3524499,51.2679229 C41.073291,54.7607569 36.4377206,58.3219075 32.3508376,61.8902899 C34.9957237,63.1026998 39.308912,63.7611084 45.2904024,63.8655157 C50.6072471,63.9583216 57.4669808,62.8737308 65.8696036,60.6117434 C56.7405212,64.4484192 49.1190118,66.3133976 43.0050756,66.2066784 C37.0337532,66.1024486 32.338394,65.7024907 28.9189979,65.0068047 C12.5371545,80.4858294 5.96532095,95.7662374 1.45103208,105.857994 C1.14595227,106.540004 1.14595227,104.765402 1.45103208,100.534187 C4.19084112,91.17911 9.31568724,82.0489322 16.8255704,73.1436536 C15.8962186,70.9485227 15.1857351,67.849015 14.6941199,63.8451305 C14.1981196,59.8055322 14.9562314,55.5019362 16.9684554,50.9343427 C16.4748405,54.8468293 16.4437007,58.5595447 16.875036,62.0724889 C17.3768407,66.1593601 18.1756341,68.916677 19.2714161,70.3444396 C24.6170116,64.4336461 31.0245787,58.6229922 38.4941175,52.9124779 C37.864906,50.6320324 37.5503002,47.5147951 37.5503002,43.5607658 C37.5503002,39.4908308 38.8272376,35.3117038 41.3811124,31.0233848 C40.4143647,34.8465518 39.9309908,38.5277982 39.9309908,42.067124 C39.9309908,46.3027296 40.4143647,49.1802421 41.3811124,50.6996613 L40.9504337,51.0664957 C42.3393337,50.0401971 43.7627962,49.0171577 45.2208212,47.9973774 C58.7346607,38.5454488 72.1795721,24.1523836 85.5555556,4.81818182 C77.4873844,19.2331807 69.017058,30.9017478 60.1445763,39.823883 C62.3762944,40.3426172 65.2126873,40.6320164 68.653755,40.6920805 C71.81812,40.7473147 75.5099485,40.1731898 79.7292406,38.9697059 C74.292919,41.4290784 69.7553777,42.6270073 66.1166169,42.5634924 C62.7427489,42.5046014 60.0535179,42.2744651 58.048924,41.8730838 Z" stroke="#6EA53B" fill="url(#linearGradient-4)" mask="url(#mask-7)"></path>
            </g>
        </g>
    </g>
</svg>